#N canvas 586 112 798 810 10;
#X msg -23035 10 connect 127.0.0.1 23000;
#X obj -23035 -43 bng 50 250 50 0 empty empty start 17 7 0 10 -4034
-1 -1;
#X obj -23035 30 s oscmsg;
#X obj -22983 -43 loadbang;
#X obj -23035 78 sendOSC;
#X obj -23035 58 r oscmsg;
#X obj -23035 124 bng 50 250 50 0 empty empty print 17 7 0 10 -4032
-1 -1;
#X obj -23035 197 s oscmsg;
#X obj -23595 -43 hsl 150 10 -180 180 0 0 empty empty testa_x_y_z -2
-8 0 10 -261234 -1 -1 7400 0;
#X floatatom -23598 -13 7 0 0 0 - - -;
#X obj -23595 -33 hsl 150 10 -180 180 0 0 empty empty empty -2 -8 0
10 -204786 -1 -1 8200 0;
#X floatatom -23553 -13 7 0 0 0 - - -;
#X obj -23595 -23 hsl 150 10 -180 180 0 0 empty empty empty -2 -8 0
10 -203904 -1 -1 7450 0;
#X floatatom -23509 -13 7 0 0 0 - - -;
#X obj -23595 27 hsl 150 10 -180 180 0 0 empty empty collo_x_y_z -2
-8 0 10 -261234 -1 -1 7450 0;
#X floatatom -23598 57 7 0 0 0 - - -;
#X obj -23595 37 hsl 150 10 -180 180 0 0 empty empty empty -2 -8 0
10 -204786 -1 -1 8100 0;
#X floatatom -23554 57 7 0 0 0 - - -;
#X obj -23595 47 hsl 150 10 -180 180 0 0 empty empty empty -2 -8 0
10 -203904 -1 -1 8400 0;
#X floatatom -23511 57 7 0 0 0 - - -;
#X obj -23595 97 hsl 150 10 -180 180 0 0 empty empty schiena_x_y_z
-2 -8 0 10 -261234 -1 -1 7800 0;
#X floatatom -23598 127 7 0 0 0 - - -;
#X obj -23595 107 hsl 150 10 -180 180 0 0 empty empty empty -2 -8 0
10 -204786 -1 -1 7800 0;
#X floatatom -23553 127 7 0 0 0 - - -;
#X obj -23595 117 hsl 150 10 -180 180 0 0 empty empty empty -2 -8 0
10 -203904 -1 -1 6700 0;
#X floatatom -23509 127 7 0 0 0 - - -;
#X msg -23629 -14 0;
#X msg -23629 56 0;
#X msg -23629 126 0;
#X obj -23595 167 hsl 150 10 -180 180 0 0 empty empty addome_x_y_z
-2 -8 0 10 -261234 -1 -1 8000 0;
#X floatatom -23598 197 7 0 0 0 - - -;
#X obj -23595 177 hsl 150 10 -180 180 0 0 empty empty empty -2 -8 0
10 -204786 -1 -1 7450 0;
#X floatatom -23554 197 7 0 0 0 - - -;
#X obj -23595 187 hsl 150 10 -180 180 0 0 empty empty empty -2 -8 0
10 -203904 -1 -1 7600 0;
#X floatatom -23510 197 7 0 0 0 - - -;
#X msg -23629 196 0;
#X obj -23595 237 hsl 150 10 -180 180 0 0 empty empty bacino_x_y_z
-2 -8 0 10 -261234 -1 -1 7500 0;
#X floatatom -23598 267 7 0 0 0 - - -;
#X obj -23595 247 hsl 150 10 -180 180 0 0 empty empty empty -2 -8 0
10 -204786 -1 -1 7450 0;
#X floatatom -23554 267 7 0 0 0 - - -;
#X obj -23595 257 hsl 150 10 -180 180 0 0 empty empty empty -2 -8 0
10 -203904 -1 -1 7450 0;
#X floatatom -23510 267 7 0 0 0 - - -;
#X msg -23629 266 0;
#X obj -23648 -43 r reset;
#X obj -23648 27 r reset;
#X obj -23648 97 r reset;
#X obj -23648 167 r reset;
#X obj -23648 237 r reset;
#X obj -23443 -43 r reset;
#X obj -23443 27 r reset;
#X obj -23443 97 r reset;
#X obj -23443 167 r reset;
#X obj -23443 237 r reset;
#X obj -23885 97 hsl 150 10 -180 180 0 0 empty empty bicipite_L_x_y_z
-2 -8 0 10 -261234 -1 -1 9400 0;
#X floatatom -23888 127 7 0 0 0 - - -;
#X obj -23885 107 hsl 150 10 -180 180 0 0 empty empty empty -2 -8 0
10 -204786 -1 -1 9800 0;
#X floatatom -23843 127 7 0 0 0 - - -;
#X obj -23885 117 hsl 150 10 -180 180 0 0 empty empty empty -2 -8 0
10 -203904 -1 -1 7450 0;
#X floatatom -23799 127 7 0 0 0 - - -;
#X msg -23919 126 0;
#X obj -23938 96 r reset;
#X obj -23733 97 r reset;
#X obj -23885 167 hsl 150 10 -180 180 0 0 empty empty avambraccio_L_x_y_z
-2 -8 0 10 -261234 -1 -1 9900 0;
#X floatatom -23888 197 7 0 0 0 - - -;
#X obj -23885 177 hsl 150 10 -180 180 0 0 empty empty empty -2 -8 0
10 -204786 -1 -1 7450 0;
#X floatatom -23843 197 7 0 0 0 - - -;
#X obj -23885 187 hsl 150 10 -180 180 0 0 empty empty empty -2 -8 0
10 -203904 -1 -1 7450 0;
#X floatatom -23799 197 7 0 0 0 - - -;
#X msg -23919 196 0;
#X obj -23938 166 r reset;
#X obj -23733 167 r reset;
#X obj -23885 237 hsl 150 10 -180 180 0 0 empty empty mano_L_x_y_z
-2 -8 0 10 -261234 -1 -1 7450 0;
#X floatatom -23888 267 7 0 0 0 - - -;
#X obj -23885 247 hsl 150 10 -180 180 0 0 empty empty empty -2 -8 0
10 -204786 -1 -1 7450 0;
#X floatatom -23843 267 7 0 0 0 - - -;
#X obj -23885 257 hsl 150 10 -180 180 0 0 empty empty empty -2 -8 0
10 -203904 -1 -1 8500 0;
#X floatatom -23799 267 7 0 0 0 - - -;
#X msg -23919 266 0;
#X obj -23938 236 r reset;
#X obj -23733 237 r reset;
#X obj -23725 457 hsl 150 10 -180 180 0 0 empty empty gamba_L_x_y_z
-2 -8 0 10 -261234 -1 -1 5100 0;
#X floatatom -23728 487 7 0 0 0 - - -;
#X obj -23725 467 hsl 150 10 -180 180 0 0 empty empty empty -2 -8 0
10 -204786 -1 -1 7450 0;
#X floatatom -23684 487 7 0 0 0 - - -;
#X obj -23725 477 hsl 150 10 -180 180 0 0 empty empty empty -2 -8 0
10 -203904 -1 -1 6500 0;
#X floatatom -23640 487 7 0 0 0 - - -;
#X msg -23759 486 0;
#X obj -23778 457 r reset;
#X obj -23573 457 r reset;
#X obj -23725 527 hsl 150 10 -180 180 0 0 empty empty polpaccio_L_x_y_z
-2 -8 0 10 -261234 -1 -1 9900 0;
#X floatatom -23728 557 7 0 0 0 - - -;
#X obj -23725 537 hsl 150 10 -180 180 0 0 empty empty empty -2 -8 0
10 -204786 -1 -1 7450 0;
#X floatatom -23684 556 7 0 0 0 - - -;
#X obj -23725 547 hsl 150 10 -180 180 0 0 empty empty empty -2 -8 0
10 -203904 -1 -1 7450 0;
#X floatatom -23640 557 7 0 0 0 - - -;
#X msg -23759 556 0;
#X obj -23778 527 r reset;
#X obj -23573 527 r reset;
#X obj -23725 597 hsl 150 10 -180 180 0 0 empty empty piede_L_x_y_z
-2 -8 0 10 -261234 -1 -1 7800 0;
#X floatatom -23728 627 7 0 0 0 - - -;
#X obj -23725 607 hsl 150 10 -180 180 0 0 empty empty empty -2 -8 0
10 -204786 -1 -1 8200 0;
#X floatatom -23684 627 7 0 0 0 - - -;
#X obj -23725 617 hsl 150 10 -180 180 0 0 empty empty empty -2 -8 0
10 -203904 -1 -1 7450 0;
#X floatatom -23640 627 7 0 0 0 - - -;
#X msg -23759 626 0;
#X obj -23778 597 r reset;
#X obj -23573 597 r reset;
#X obj -23443 3 packbone;
#X obj -23443 73 packbone;
#X obj -23443 143 packbone;
#X obj -23443 213 packbone;
#X obj -23443 283 packbone;
#X obj -23733 143 packbone;
#X obj -23733 213 packbone;
#X obj -23733 283 packbone;
#X obj -23573 503 packbone;
#X obj -23573 573 packbone;
#X msg -23035 177 send /avatar/print;
#X obj -22980 270 bng 15 250 50 0 empty empty empty 17 7 0 10 -262144
-1 -1;
#X obj -22980 290 asin 1;
#X obj -22980 310 * 2;
#X obj -22961 269 loadbang;
#X obj -22980 330 s PI;
#X obj -23035 247 bng 50 250 50 0 empty empty reset 17 7 0 10 -260097
-1 -1;
#X obj -22983 247 loadbang;
#X obj -23035 330 s reset;
#X obj -23035 372 s oscmsg;
#X obj -23035 310 t b b;
#X msg -23443 -26 testa;
#X msg -23443 44 collo;
#X msg -23443 114 schiena;
#X msg -23443 184 addome;
#X msg -23035 351 send /avatar/reset;
#X msg -23443 254 bacino;
#X msg -23733 114 bicipite_L;
#X msg -23733 184 avambraccio_L;
#X msg -23733 254 mano_L;
#X obj -23325 97 hsl 150 10 -180 180 0 0 empty empty bicipite_R_x_y_z
-2 -8 0 10 -261234 -1 -1 8300 0;
#X floatatom -23328 127 7 0 0 0 - - -;
#X obj -23325 107 hsl 150 10 -180 180 0 0 empty empty empty -2 -8 0
10 -204786 -1 -1 4400 0;
#X floatatom -23283 127 7 0 0 0 - - -;
#X obj -23325 117 hsl 150 10 -180 180 0 0 empty empty empty -2 -8 0
10 -203904 -1 -1 10100 0;
#X floatatom -23239 127 7 0 0 0 - - -;
#X msg -23359 126 0;
#X obj -23378 96 r reset;
#X obj -23173 97 r reset;
#X obj -23325 167 hsl 150 10 -180 180 0 0 empty empty avambraccio_R_x_y_z
-2 -8 0 10 -261234 -1 -1 14900 0;
#X floatatom -23328 197 7 0 0 0 - - -;
#X obj -23325 177 hsl 150 10 -180 180 0 0 empty empty empty -2 -8 0
10 -204786 -1 -1 7450 0;
#X floatatom -23283 197 7 0 0 0 - - -;
#X obj -23325 187 hsl 150 10 -180 180 0 0 empty empty empty -2 -8 0
10 -203904 -1 -1 7450 0;
#X floatatom -23239 197 7 0 0 0 - - -;
#X msg -23359 196 0;
#X obj -23378 166 r reset;
#X obj -23173 167 r reset;
#X obj -23325 237 hsl 150 10 -180 180 0 0 empty empty mano_R_x_y_z
-2 -8 0 10 -261234 -1 -1 7450 0;
#X floatatom -23328 267 7 0 0 0 - - -;
#X obj -23325 247 hsl 150 10 -180 180 0 0 empty empty empty -2 -8 0
10 -204786 -1 -1 7450 0;
#X floatatom -23283 267 7 0 0 0 - - -;
#X obj -23325 257 hsl 150 10 -180 180 0 0 empty empty empty -2 -8 0
10 -203904 -1 -1 7450 0;
#X floatatom -23239 267 7 0 0 0 - - -;
#X msg -23359 266 0;
#X obj -23378 236 r reset;
#X obj -23173 237 r reset;
#X obj -23173 143 packbone;
#X obj -23173 213 packbone;
#X obj -23173 283 packbone;
#X msg -23173 114 bicipite_R;
#X msg -23173 184 avambraccio_R;
#X msg -23173 254 mano_R;
#X msg -23573 474 gamba_L;
#X msg -23573 544 polpaccio_L;
#X msg -23573 614 piede_L;
#X obj -23465 457 hsl 150 10 -180 180 0 0 empty empty gamba_R_x_y_z
-2 -8 0 10 -261234 -1 -1 8900 0;
#X floatatom -23468 487 7 0 0 0 - - -;
#X obj -23465 467 hsl 150 10 -180 180 0 0 empty empty empty -2 -8 0
10 -204786 -1 -1 7200 0;
#X floatatom -23424 487 7 0 0 0 - - -;
#X obj -23465 477 hsl 150 10 -180 180 0 0 empty empty empty -2 -8 0
10 -203904 -1 -1 6400 0;
#X floatatom -23380 487 7 0 0 0 - - -;
#X msg -23499 486 0;
#X obj -23518 457 r reset;
#X obj -23313 457 r reset;
#X obj -23465 527 hsl 150 10 -180 180 0 0 empty empty polpaccio_R_x_y_z
-2 -8 0 10 -261234 -1 -1 12300 0;
#X floatatom -23468 557 7 0 0 0 - - -;
#X obj -23465 537 hsl 150 10 -180 180 0 0 empty empty empty -2 -8 0
10 -204786 -1 -1 7450 0;
#X floatatom -23424 556 7 0 0 0 - - -;
#X obj -23465 547 hsl 150 10 -180 180 0 0 empty empty empty -2 -8 0
10 -203904 -1 -1 7450 0;
#X floatatom -23380 557 7 0 0 0 - - -;
#X msg -23499 556 0;
#X obj -23518 527 r reset;
#X obj -23313 527 r reset;
#X obj -23465 597 hsl 150 10 -180 180 0 0 empty empty piede_R_x_y_z
-2 -8 0 10 -261234 -1 -1 6500 0;
#X floatatom -23468 627 7 0 0 0 - - -;
#X obj -23465 607 hsl 150 10 -180 180 0 0 empty empty empty -2 -8 0
10 -204786 -1 -1 7450 0;
#X floatatom -23424 627 7 0 0 0 - - -;
#X obj -23465 617 hsl 150 10 -180 180 0 0 empty empty empty -2 -8 0
10 -203904 -1 -1 7450 0;
#X floatatom -23380 627 7 0 0 0 - - -;
#X msg -23499 626 0;
#X obj -23518 597 r reset;
#X obj -23313 597 r reset;
#X obj -23313 503 packbone;
#X obj -23313 573 packbone;
#X msg -23313 474 gamba_R;
#X msg -23313 544 polpaccio_R;
#X msg -23313 614 piede_R;
#X obj -23595 357 hsl 150 10 -180 180 0 0 empty empty root_x_y_z -2
-8 0 10 -261234 -1 -1 7700 0;
#X floatatom -23598 387 7 0 0 0 - - -;
#X obj -23595 367 hsl 150 10 -180 180 0 0 empty empty empty -2 -8 0
10 -204786 -1 -1 8400 0;
#X floatatom -23554 387 7 0 0 0 - - -;
#X obj -23595 377 hsl 150 10 -180 180 0 0 empty empty empty -2 -8 0
10 -203904 -1 -1 7450 0;
#X floatatom -23510 387 7 0 0 0 - - -;
#X msg -23629 386 0;
#X obj -23648 357 r reset;
#X obj -23443 357 r reset;
#X obj -23443 403 packbone;
#X msg -23443 374 root;
#X obj -23573 643 packbone;
#X obj -23313 643 packbone;
#X connect 0 0 2 0;
#X connect 1 0 0 0;
#X connect 3 0 0 0;
#X connect 5 0 4 0;
#X connect 6 0 117 0;
#X connect 8 0 9 0;
#X connect 9 0 107 1;
#X connect 10 0 11 0;
#X connect 11 0 107 2;
#X connect 12 0 13 0;
#X connect 13 0 107 3;
#X connect 14 0 15 0;
#X connect 15 0 108 1;
#X connect 16 0 17 0;
#X connect 17 0 108 2;
#X connect 18 0 19 0;
#X connect 19 0 108 3;
#X connect 20 0 21 0;
#X connect 21 0 109 1;
#X connect 22 0 23 0;
#X connect 23 0 109 2;
#X connect 24 0 25 0;
#X connect 25 0 109 3;
#X connect 26 0 8 0;
#X connect 26 0 10 0;
#X connect 26 0 12 0;
#X connect 27 0 14 0;
#X connect 27 0 16 0;
#X connect 27 0 18 0;
#X connect 28 0 20 0;
#X connect 28 0 22 0;
#X connect 28 0 24 0;
#X connect 29 0 30 0;
#X connect 30 0 110 1;
#X connect 31 0 32 0;
#X connect 32 0 110 2;
#X connect 33 0 34 0;
#X connect 34 0 110 3;
#X connect 35 0 29 0;
#X connect 35 0 31 0;
#X connect 35 0 33 0;
#X connect 36 0 37 0;
#X connect 37 0 111 1;
#X connect 38 0 39 0;
#X connect 39 0 111 2;
#X connect 40 0 41 0;
#X connect 41 0 111 3;
#X connect 42 0 36 0;
#X connect 42 0 38 0;
#X connect 42 0 40 0;
#X connect 43 0 26 0;
#X connect 44 0 27 0;
#X connect 45 0 28 0;
#X connect 46 0 35 0;
#X connect 47 0 42 0;
#X connect 48 0 128 0;
#X connect 49 0 129 0;
#X connect 50 0 130 0;
#X connect 51 0 131 0;
#X connect 52 0 133 0;
#X connect 53 0 54 0;
#X connect 54 0 112 1;
#X connect 55 0 56 0;
#X connect 56 0 112 2;
#X connect 57 0 58 0;
#X connect 58 0 112 3;
#X connect 59 0 53 0;
#X connect 59 0 55 0;
#X connect 59 0 57 0;
#X connect 60 0 59 0;
#X connect 61 0 134 0;
#X connect 62 0 63 0;
#X connect 63 0 113 1;
#X connect 64 0 65 0;
#X connect 65 0 113 2;
#X connect 66 0 67 0;
#X connect 67 0 113 3;
#X connect 68 0 62 0;
#X connect 68 0 64 0;
#X connect 68 0 66 0;
#X connect 69 0 68 0;
#X connect 70 0 135 0;
#X connect 71 0 72 0;
#X connect 72 0 114 1;
#X connect 73 0 74 0;
#X connect 74 0 114 2;
#X connect 75 0 76 0;
#X connect 76 0 114 3;
#X connect 77 0 71 0;
#X connect 77 0 73 0;
#X connect 77 0 75 0;
#X connect 78 0 77 0;
#X connect 79 0 136 0;
#X connect 80 0 81 0;
#X connect 81 0 115 1;
#X connect 82 0 83 0;
#X connect 83 0 115 2;
#X connect 84 0 85 0;
#X connect 85 0 115 3;
#X connect 86 0 80 0;
#X connect 86 0 82 0;
#X connect 86 0 84 0;
#X connect 87 0 86 0;
#X connect 88 0 170 0;
#X connect 89 0 90 0;
#X connect 90 0 116 1;
#X connect 91 0 92 0;
#X connect 92 0 116 2;
#X connect 93 0 94 0;
#X connect 94 0 116 3;
#X connect 95 0 89 0;
#X connect 95 0 91 0;
#X connect 95 0 93 0;
#X connect 96 0 95 0;
#X connect 97 0 171 0;
#X connect 98 0 99 0;
#X connect 99 0 216 1;
#X connect 100 0 101 0;
#X connect 101 0 216 2;
#X connect 102 0 103 0;
#X connect 103 0 216 3;
#X connect 104 0 98 0;
#X connect 104 0 100 0;
#X connect 104 0 102 0;
#X connect 105 0 104 0;
#X connect 106 0 172 0;
#X connect 117 0 7 0;
#X connect 118 0 119 0;
#X connect 119 0 120 0;
#X connect 120 0 122 0;
#X connect 121 0 119 0;
#X connect 123 0 127 0;
#X connect 124 0 127 0;
#X connect 127 0 125 0;
#X connect 127 1 132 0;
#X connect 128 0 107 0;
#X connect 129 0 108 0;
#X connect 130 0 109 0;
#X connect 131 0 110 0;
#X connect 132 0 126 0;
#X connect 133 0 111 0;
#X connect 134 0 112 0;
#X connect 135 0 113 0;
#X connect 136 0 114 0;
#X connect 137 0 138 0;
#X connect 138 0 164 1;
#X connect 139 0 140 0;
#X connect 140 0 164 2;
#X connect 141 0 142 0;
#X connect 142 0 164 3;
#X connect 143 0 137 0;
#X connect 143 0 139 0;
#X connect 143 0 141 0;
#X connect 144 0 143 0;
#X connect 145 0 167 0;
#X connect 146 0 147 0;
#X connect 147 0 165 1;
#X connect 148 0 149 0;
#X connect 149 0 165 2;
#X connect 150 0 151 0;
#X connect 151 0 165 3;
#X connect 152 0 146 0;
#X connect 152 0 148 0;
#X connect 152 0 150 0;
#X connect 153 0 152 0;
#X connect 154 0 168 0;
#X connect 155 0 156 0;
#X connect 156 0 166 1;
#X connect 157 0 158 0;
#X connect 158 0 166 2;
#X connect 159 0 160 0;
#X connect 160 0 166 3;
#X connect 161 0 155 0;
#X connect 161 0 157 0;
#X connect 161 0 159 0;
#X connect 162 0 161 0;
#X connect 163 0 169 0;
#X connect 167 0 164 0;
#X connect 168 0 165 0;
#X connect 169 0 166 0;
#X connect 170 0 115 0;
#X connect 171 0 116 0;
#X connect 172 0 216 0;
#X connect 173 0 174 0;
#X connect 174 0 200 1;
#X connect 175 0 176 0;
#X connect 176 0 200 2;
#X connect 177 0 178 0;
#X connect 178 0 200 3;
#X connect 179 0 173 0;
#X connect 179 0 175 0;
#X connect 179 0 177 0;
#X connect 180 0 179 0;
#X connect 181 0 202 0;
#X connect 182 0 183 0;
#X connect 183 0 201 1;
#X connect 184 0 185 0;
#X connect 185 0 201 2;
#X connect 186 0 187 0;
#X connect 187 0 201 3;
#X connect 188 0 182 0;
#X connect 188 0 184 0;
#X connect 188 0 186 0;
#X connect 189 0 188 0;
#X connect 190 0 203 0;
#X connect 191 0 192 0;
#X connect 192 0 217 1;
#X connect 193 0 194 0;
#X connect 194 0 217 2;
#X connect 195 0 196 0;
#X connect 196 0 217 3;
#X connect 197 0 191 0;
#X connect 197 0 193 0;
#X connect 197 0 195 0;
#X connect 198 0 197 0;
#X connect 199 0 204 0;
#X connect 202 0 200 0;
#X connect 203 0 201 0;
#X connect 204 0 217 0;
#X connect 205 0 206 0;
#X connect 206 0 214 1;
#X connect 207 0 208 0;
#X connect 208 0 214 2;
#X connect 209 0 210 0;
#X connect 210 0 214 3;
#X connect 211 0 205 0;
#X connect 211 0 207 0;
#X connect 211 0 209 0;
#X connect 212 0 211 0;
#X connect 213 0 215 0;
#X connect 215 0 214 0;
