#N canvas 275 327 762 490 10;
#X obj 270 50 ctlin;
#X obj 246 94 pack \$1 \$2 \$3;
#X msg 246 133 send /karlax \$1 \$2 \$3;
#X obj 49 46 bng 15 250 50 0 empty empty empty 17 7 0 10 -262144 -1
-1;
#X obj 70 45 loadbang;
#X msg 49 75 connect 192.168.1.3 22000;
#X obj 49 202 sendOSC;
#X connect 0 0 1 0;
#X connect 0 1 1 1;
#X connect 0 2 1 2;
#X connect 1 0 2 0;
#X connect 2 0 6 0;
#X connect 3 0 5 0;
#X connect 4 0 5 0;
#X connect 5 0 6 0;
