#N canvas 1163 718 450 300 10;
#X obj -18 4 inlet;
#X obj 87 4 inlet;
#X obj 106 134 * 1;
#X obj 72 117 / 180;
#X obj 121 117 r PI;
#X obj -18 151 pack s f f f;
#X obj 72 93 f;
#X obj -18 76 t s b b b;
#X floatatom 106 155 10 0 0 0 - - -;
#X obj 187 4 inlet;
#X obj 206 134 * 1;
#X obj 172 117 / 180;
#X obj 221 117 r PI;
#X obj 172 93 f;
#X floatatom 206 155 10 0 0 0 - - -;
#X obj 297 4 inlet;
#X obj 316 134 * 1;
#X obj 282 117 / 180;
#X obj 331 117 r PI;
#X obj 282 93 f;
#X floatatom 316 155 10 0 0 0 - - -;
#X obj -18 25 prepend symbol;
#X obj -18 203 s oscmsg;
#X obj 73 76 t b f b b;
#X obj 172 76 t b b f b;
#X obj 283 76 t b b b b;
#X msg -18 177 send /avatar/bone/rot \$1 \$2 \$3 \$4;
#X connect 0 0 21 0;
#X connect 1 0 23 0;
#X connect 1 0 6 1;
#X connect 2 0 8 0;
#X connect 2 0 5 1;
#X connect 3 0 2 0;
#X connect 4 0 2 1;
#X connect 5 0 26 0;
#X connect 6 0 3 0;
#X connect 7 0 5 0;
#X connect 7 1 6 0;
#X connect 7 2 13 0;
#X connect 7 3 19 0;
#X connect 9 0 24 0;
#X connect 9 0 13 1;
#X connect 10 0 14 0;
#X connect 10 0 5 2;
#X connect 11 0 10 0;
#X connect 12 0 10 1;
#X connect 13 0 11 0;
#X connect 15 0 19 1;
#X connect 15 0 25 0;
#X connect 16 0 20 0;
#X connect 16 0 5 3;
#X connect 17 0 16 0;
#X connect 18 0 16 1;
#X connect 19 0 17 0;
#X connect 21 0 7 0;
#X connect 23 0 5 0;
#X connect 23 1 6 0;
#X connect 23 2 13 0;
#X connect 23 3 19 0;
#X connect 24 0 5 0;
#X connect 24 1 6 0;
#X connect 24 2 13 0;
#X connect 24 3 19 0;
#X connect 25 0 5 0;
#X connect 25 1 6 0;
#X connect 25 2 13 0;
#X connect 25 3 19 0;
#X connect 26 0 22 0;
